<svg viewBox="0 0 597.86 80" xmlns="http://www.w3.org/2000/svg" role="img" aria-label="Open Green Button"><defs><linearGradient id="ebD" x1="0" y1="0" x2="1" y2="1"><stop offset="0" stop-color="#2DD4FF"/><stop offset="1" stop-color="#1E5BFF"/></linearGradient><linearGradient id="ebLD" x1="0" y1="0" x2="1" y2="1"><stop offset="0" stop-color="#7FE0FF"/><stop offset="1" stop-color="#4D8BFF"/></linearGradient></defs><g transform="translate(8.0 8.0)"><path d="M17 47 A21 21 0 1 1 47 47" fill="none" stroke="url(#ebLD)" stroke-width="6.5" stroke-linecap="round"/><path d="M36 15 L26 34 L32.5 34 L28 50 L40 29 L33.5 29 Z" fill="url(#ebD)" stroke-linejoin="round"/></g><g transform="translate(90 57)" fill="#FFFFFF"><path d="M20.45 0.49C30.99 0.49 38.76 -6.9 38.76 -17C38.76 -27.1 30.99 -34.49 20.45 -34.49C9.91 -34.49 2.14 -27.05 2.14 -17C2.14 -6.95 9.91 0.49 20.45 0.49ZM20.45 -5.05C13.6 -5.05 8.5 -10.05 8.5 -17C8.5 -23.95 13.6 -28.95 20.45 -28.95C27.3 -28.95 32.4 -23.95 32.4 -17C32.4 -10.05 27.3 -5.05 20.45 -5.05Z M59.66 0.34C67.23 0.34 72.82 -4.91 72.82 -12.97C72.82 -20.98 67.23 -26.23 59.66 -26.23C56.11 -26.23 53.1 -25.06 51.06 -22.54V-25.94H45.28V9.42H51.35V-3.16C53.44 -0.83 56.35 0.34 59.66 0.34ZM58.98 -4.86C54.61 -4.86 51.25 -8.01 51.25 -12.97C51.25 -17.92 54.61 -21.08 58.98 -21.08C63.35 -21.08 66.65 -17.92 66.65 -12.97C66.65 -8.01 63.35 -4.86 58.98 -4.86Z M91.19 0.34C95.66 0.34 99.3 -1.12 101.63 -3.89L98.38 -7.63C96.53 -5.73 94.25 -4.81 91.34 -4.81C86.82 -4.81 83.66 -7.24 82.93 -11.03H103.29C103.33 -11.61 103.38 -12.34 103.38 -12.82C103.38 -20.93 97.85 -26.23 90.27 -26.23C82.55 -26.23 76.86 -20.69 76.86 -12.97C76.86 -5.25 82.5 0.34 91.19 0.34ZM82.89 -15.06C83.47 -18.85 86.33 -21.37 90.27 -21.37C94.25 -21.37 97.12 -18.8 97.6 -15.06Z M109.61 0H115.68V-13.11C115.68 -18.31 118.6 -20.93 122.92 -20.93C126.81 -20.93 129.09 -18.7 129.09 -14.09V0H135.16V-14.86C135.16 -22.68 130.55 -26.23 124.33 -26.23C120.54 -26.23 117.38 -24.97 115.39 -22.59V-25.94H109.61Z M174.32 0.49C179.13 0.49 184.08 -0.97 187.63 -3.84V-17.39H181.65V-6.8C179.47 -5.54 177.14 -5.05 174.66 -5.05C167.47 -5.05 162.37 -10.1 162.37 -17C162.37 -24.04 167.47 -28.95 174.71 -28.95C178.35 -28.95 181.41 -27.73 184.08 -25.06L188.07 -28.95C184.86 -32.59 180.1 -34.49 174.42 -34.49C163.78 -34.49 156.01 -27.15 156.01 -17C156.01 -6.85 163.78 0.49 174.32 0.49Z M195.75 0H201.82V-12.58C201.82 -17.87 204.74 -20.59 209.35 -20.59C209.79 -20.59 210.23 -20.55 210.76 -20.45V-26.23C206.44 -26.23 203.28 -24.87 201.53 -22.15V-25.94H195.75Z M228.74 0.34C233.21 0.34 236.85 -1.12 239.19 -3.89L235.93 -7.63C234.09 -5.73 231.8 -4.81 228.89 -4.81C224.37 -4.81 221.21 -7.24 220.49 -11.03H240.84C240.89 -11.61 240.93 -12.34 240.93 -12.82C240.93 -20.93 235.4 -26.23 227.82 -26.23C220.1 -26.23 214.41 -20.69 214.41 -12.97C214.41 -5.25 220.05 0.34 228.74 0.34ZM220.44 -15.06C221.02 -18.85 223.89 -21.37 227.82 -21.37C231.8 -21.37 234.67 -18.8 235.15 -15.06Z M259.35 0.34C263.82 0.34 267.47 -1.12 269.8 -3.89L266.54 -7.63C264.7 -5.73 262.41 -4.81 259.5 -4.81C254.98 -4.81 251.83 -7.24 251.1 -11.03H271.45C271.5 -11.61 271.55 -12.34 271.55 -12.82C271.55 -20.93 266.01 -26.23 258.43 -26.23C250.71 -26.23 245.03 -20.69 245.03 -12.97C245.03 -5.25 250.66 0.34 259.35 0.34ZM251.05 -15.06C251.63 -18.85 254.5 -21.37 258.43 -21.37C262.41 -21.37 265.28 -18.8 265.77 -15.06Z M277.77 0H283.85V-13.11C283.85 -18.31 286.76 -20.93 291.08 -20.93C294.97 -20.93 297.25 -18.7 297.25 -14.09V0H303.32V-14.86C303.32 -22.68 298.71 -26.23 292.49 -26.23C288.7 -26.23 285.55 -24.97 283.55 -22.59V-25.94H277.77Z M326.6 0H343.5C352.25 0 356.81 -3.4 356.81 -9.23C356.81 -13.65 354.33 -16.51 350.69 -17.68C353.27 -19.04 355.06 -21.66 355.06 -25.16C355.06 -30.55 350.69 -34 342.53 -34H326.6ZM332.91 -4.95V-14.77H343.11C347.87 -14.77 350.45 -13.26 350.45 -9.86C350.45 -6.46 347.87 -4.95 343.11 -4.95ZM332.91 -19.67V-29.05H341.85C346.22 -29.05 348.7 -27.49 348.7 -24.33C348.7 -21.23 346.22 -19.67 341.85 -19.67Z M374.36 0.34C377.71 0.34 380.77 -0.92 382.71 -3.3V0H388.49V-25.94H382.42V-12.82C382.42 -7.63 379.55 -5 375.33 -5C371.49 -5 369.26 -7.24 369.26 -11.95V-25.94H363.19V-11.12C363.19 -3.3 367.7 0.34 374.36 0.34Z M406.62 0.34C408.81 0.34 410.99 -0.24 412.45 -1.41L410.75 -5.73C409.83 -5 408.61 -4.66 407.35 -4.66C405.02 -4.66 403.75 -6.02 403.75 -8.55V-21.08H410.7V-25.94H403.75V-31.67H397.68V-25.94H393.41V-21.08H397.68V-8.4C397.68 -2.67 400.94 0.34 406.62 0.34Z M427.61 0.34C429.8 0.34 431.99 -0.24 433.44 -1.41L431.74 -5.73C430.82 -5 429.61 -4.66 428.34 -4.66C426.01 -4.66 424.75 -6.02 424.75 -8.55V-21.08H431.69V-25.94H424.75V-31.67H418.68V-25.94H414.4V-21.08H418.68V-8.4C418.68 -2.67 421.93 0.34 427.61 0.34Z M450.5 0.34C458.57 0.34 464.35 -5.2 464.35 -12.97C464.35 -20.74 458.57 -26.23 450.5 -26.23C442.54 -26.23 436.71 -20.74 436.71 -12.97C436.71 -5.2 442.54 0.34 450.5 0.34ZM450.5 -4.86C446.13 -4.86 442.83 -8.01 442.83 -12.97C442.83 -17.92 446.13 -21.08 450.5 -21.08C454.92 -21.08 458.23 -17.92 458.23 -12.97C458.23 -8.01 454.92 -4.86 450.5 -4.86Z M470.57 0H476.65V-13.11C476.65 -18.31 479.56 -20.93 483.88 -20.93C487.77 -20.93 490.05 -18.7 490.05 -14.09V0H496.12V-14.86C496.12 -22.68 491.51 -26.23 485.29 -26.23C481.5 -26.23 478.35 -24.97 476.35 -22.59V-25.94H470.57Z"/></g></svg>